<svg width="36" height="36" viewBox="0 0 36 36" fill="none" xmlns="http://www.w3.org/2000/svg">
<g clip-path="url(#clip0_13_195)">
<path d="M4.94769 4.59497L4.97826 18.6331C5.40983 25.5352 11.1255 31 18.1189 31C25.1123 31 30.8246 25.5352 31.2562 18.6331L31.2834 4.59497H4.94769Z" fill="#27242B"/>
<path d="M11.3634 22.3098C14.7415 22.3098 17.4801 19.6162 17.4801 16.2934C17.4801 12.9707 14.7415 10.2771 11.3634 10.2771C7.98526 10.2771 5.24673 12.9707 5.24673 16.2934C5.24673 19.6162 7.98526 22.3098 11.3634 22.3098Z" fill="#27242B"/>
<path d="M11.3634 11.2798C12.3716 11.2798 13.357 11.5739 14.1953 12.1248C15.0335 12.6757 15.6868 13.4587 16.0726 14.3748C16.4584 15.2909 16.5594 16.299 16.3627 17.2715C16.166 18.2441 15.6806 19.1374 14.9677 19.8386C14.2548 20.5398 13.3466 21.0173 12.3579 21.2107C11.3691 21.4042 10.3442 21.3049 9.4128 20.9254C8.48141 20.546 7.68532 19.9033 7.12523 19.0789C6.56514 18.2544 6.2662 17.285 6.2662 16.2934C6.2662 14.9637 6.80324 13.6885 7.75915 12.7483C8.71507 11.808 10.0116 11.2798 11.3634 11.2798ZM11.3634 10.2771C10.1537 10.2771 8.97107 10.63 7.96519 11.291C6.95931 11.9521 6.17529 12.8917 5.71234 13.9911C5.24938 15.0904 5.12826 16.3001 5.36427 17.4672C5.60028 18.6342 6.18286 19.7062 7.03829 20.5476C7.89372 21.389 8.98361 21.962 10.1701 22.1942C11.3566 22.4263 12.5865 22.3072 13.7042 21.8518C14.8218 21.3964 15.7771 20.6253 16.4492 19.6359C17.1213 18.6466 17.4801 17.4834 17.4801 16.2934C17.4801 14.6978 16.8357 13.1675 15.6886 12.0393C14.5415 10.911 12.9857 10.2771 11.3634 10.2771Z" fill="white"/>
<path d="M11.3634 18.466C12.5833 18.466 13.5722 17.4933 13.5722 16.2934C13.5722 15.0935 12.5833 14.1208 11.3634 14.1208C10.1435 14.1208 9.1546 15.0935 9.1546 16.2934C9.1546 17.4933 10.1435 18.466 11.3634 18.466Z" fill="white"/>
<path d="M24.956 22.3098C28.3342 22.3098 31.0727 19.6162 31.0727 16.2934C31.0727 12.9707 28.3342 10.2771 24.956 10.2771C21.5779 10.2771 18.8394 12.9707 18.8394 16.2934C18.8394 19.6162 21.5779 22.3098 24.956 22.3098Z" fill="#27242B"/>
<path d="M24.956 11.2798C25.9642 11.2798 26.9497 11.5739 27.7879 12.1248C28.6261 12.6757 29.2795 13.4587 29.6652 14.3748C30.051 15.2909 30.152 16.299 29.9553 17.2715C29.7586 18.2441 29.2732 19.1374 28.5603 19.8386C27.8475 20.5398 26.9392 21.0173 25.9505 21.2107C24.9617 21.4042 23.9368 21.3049 23.0054 20.9254C22.074 20.546 21.2779 19.9033 20.7179 19.0789C20.1578 18.2544 19.8588 17.285 19.8588 16.2934C19.8588 14.9637 20.3959 13.6885 21.3518 12.7483C22.3077 11.808 23.6042 11.2798 24.956 11.2798ZM24.956 10.2771C23.7463 10.2771 22.5637 10.63 21.5578 11.291C20.5519 11.9521 19.7679 12.8917 19.305 13.9911C18.842 15.0904 18.7209 16.3001 18.9569 17.4672C19.1929 18.6342 19.7755 19.7062 20.6309 20.5476C21.4863 21.389 22.5762 21.962 23.7627 22.1942C24.9493 22.4263 26.1791 22.3072 27.2968 21.8518C28.4145 21.3964 29.3697 20.6253 30.0419 19.6359C30.714 18.6466 31.0727 17.4834 31.0727 16.2934C31.0727 14.6978 30.4283 13.1675 29.2812 12.0393C28.1341 10.911 26.5783 10.2771 24.956 10.2771Z" fill="white"/>
<path d="M24.956 18.466C26.1759 18.466 27.1648 17.4933 27.1648 16.2934C27.1648 15.0935 26.1759 14.1208 24.956 14.1208C23.7361 14.1208 22.7472 15.0935 22.7472 16.2934C22.7472 17.4933 23.7361 18.466 24.956 18.466Z" fill="white"/>
<path d="M0.509735 4.88236L18.1597 16.6276C18.1597 16.6276 17.0961 11.0023 12.3829 7.60309C7.28563 3.92643 3.54768 4.26067 0.509735 4.88236Z" fill="#27242B"/>
<path d="M18.1591 17.1289C18.0573 17.1284 17.9579 17.0982 17.8737 17.042L0.223662 5.29675C0.140632 5.24168 0.0758067 5.16393 0.0371621 5.07306C-0.00148261 4.98219 -0.0122626 4.88218 0.00617552 4.78537C0.0263736 4.68876 0.0747457 4.60003 0.145345 4.53C0.215945 4.45996 0.305734 4.41166 0.403774 4.39097C3.80192 3.69575 7.63504 3.55535 12.6847 7.19858C17.5067 10.678 18.6144 16.2966 18.6586 16.5373C18.6774 16.634 18.6664 16.734 18.627 16.8245C18.5877 16.915 18.5218 16.9919 18.4377 17.0453C18.3556 17.1004 18.2585 17.1295 18.1591 17.1289ZM1.82758 5.15303L17.3096 15.4577C16.7115 13.6494 15.2435 10.2903 12.0832 8.01078C7.79475 4.90568 4.53251 4.76196 1.82758 5.15303Z" fill="white"/>
<path d="M35.4903 4.88236L17.8403 16.6276C17.8403 16.6276 18.9005 11.0023 23.6172 7.60309C28.7144 3.92643 32.4523 4.26067 35.4903 4.88236Z" fill="#27242B"/>
<path d="M17.8403 17.129C17.7399 17.1297 17.6416 17.1005 17.5582 17.0454C17.4749 16.9913 17.4095 16.9144 17.3702 16.824C17.331 16.7337 17.3195 16.634 17.3373 16.5374C17.3815 16.2967 18.4927 10.6781 23.3147 7.19868C28.3644 3.55545 32.2009 3.69919 35.5956 4.39107C35.6932 4.41194 35.7825 4.46037 35.8525 4.53042C35.9226 4.60048 35.9703 4.68913 35.9898 4.78547C36.01 4.88199 36.0004 4.98223 35.9622 5.07334C35.9241 5.16445 35.8591 5.24227 35.7757 5.29685L18.1257 17.0421C18.0412 17.0977 17.942 17.1279 17.8403 17.129ZM32.1125 4.9927C29.8358 4.9927 27.175 5.66118 23.9026 8.00087C20.7457 10.2804 19.2743 13.6395 18.6762 15.4478L34.1582 5.14646C33.4857 5.04513 32.8064 4.99373 32.1261 4.9927H32.1125Z" fill="white"/>
<path d="M18.1393 15.6316L15.8592 18.0348L18.1393 23.4796L20.3753 18.0348L18.1393 15.6316Z" fill="#27242B"/>
<path d="M18.1393 23.9809C18.0382 23.9806 17.9394 23.951 17.8554 23.8957C17.7713 23.8404 17.7058 23.7619 17.667 23.6701L15.3868 18.2286C15.35 18.1394 15.3398 18.0418 15.3573 17.9472C15.3747 17.8525 15.4191 17.7646 15.4853 17.6938L17.7655 15.2906C17.814 15.2413 17.8721 15.2019 17.9363 15.1749C18.0005 15.1479 18.0695 15.1339 18.1393 15.1336C18.2095 15.1331 18.2791 15.1472 18.3435 15.1748C18.4079 15.2025 18.4657 15.243 18.5131 15.294L20.7491 17.6972C20.8142 17.7673 20.8576 17.8542 20.8745 17.9477C20.8913 18.0411 20.8808 18.1374 20.8442 18.2253L18.6082 23.6667C18.5709 23.7592 18.5063 23.8385 18.4227 23.8945C18.3391 23.9505 18.2404 23.9806 18.1393 23.9809ZM16.4402 18.1451L18.1393 22.1559L19.7874 18.1451L18.1393 16.3769L16.4402 18.1451Z" fill="white"/>
</g>
<defs>
<clipPath id="clip0_13_195">
<rect width="36" height="27" fill="white" transform="translate(0 4)"/>
</clipPath>
</defs>
</svg>
